<svg xmlns="http://www.w3.org/2000/svg" xmlns:xlink="http://www.w3.org/1999/xlink" version="1.1" id="Layer_1" x="0px" y="0px" style="enable-background:new 0 0 2000 1938;" xml:space="preserve" viewBox="757.32 768.18 533.68 474.66">
<style type="text/css">
	.st0{fill:#404041;}
	.st1{fill:#FFFFFF;}
	.st2{fill:#6D6E70;}
	.st3{fill:#58595B;}
</style>
<g>
	<path class="st0" d="M813.39,856.44l22.24-2.06l0.66-1.35l-0.06-0.69l-21.92,2.03l-45.37-30.58l0.23,4.19l0.01,0.01   c0.07-0.82,0.15-1.24,0.15-1.24L813.39,856.44z"/>
	<path d="M813.46,857.66l-44.29-29.67c-0.55,6.33-0.56,36.45,41.15,78.08L835,855.67L813.46,857.66z"/>
	<polygon class="st1" points="803.86,919.57 805.66,920.22 803.95,919.38  "/>
	<path d="M835,855.67l0.63-1.28l-22.24,2.06l-44.06-29.69c0,0-0.08,0.43-0.15,1.24l44.29,29.67L835,855.67z"/>
	<path class="st2" d="M829.17,906.54l42.04,19.82l23.1-49.01l-42.03-19.82L829.17,906.54z M871.89,918.61   c-0.73,1.52-2.53,2.17-4.05,1.45l-31.44-14.82c-1.51-0.72-2.17-2.52-1.45-4.04c0.71-1.52,2.53-2.17,4.05-1.46l31.45,14.82   C871.95,915.28,872.61,917.09,871.89,918.61z M876.14,909.6c-0.72,1.52-2.53,2.16-4.05,1.45l-31.43-14.83   c-1.52-0.71-2.18-2.53-1.46-4.04c0.71-1.52,2.53-2.17,4.05-1.46l31.44,14.83C876.2,906.27,876.86,908.08,876.14,909.6z    M880.39,900.58c-0.71,1.51-2.53,2.17-4.05,1.46l-31.44-14.83c-1.52-0.71-2.17-2.52-1.45-4.04c0.71-1.52,2.52-2.16,4.04-1.45   l31.45,14.82C880.45,897.25,881.1,899.06,880.39,900.58z M884.64,891.56c-0.71,1.52-2.52,2.17-4.04,1.46l-31.43-14.83   c-1.52-0.71-2.17-2.52-1.46-4.04c0.71-1.51,2.53-2.17,4.04-1.45l31.44,14.83C884.7,888.24,885.36,890.05,884.64,891.56z    M856,863.69l31.44,14.82c1.52,0.72,2.16,2.53,1.45,4.05c-0.72,1.52-2.53,2.17-4.05,1.45l-31.44-14.82   c-1.51-0.72-2.17-2.53-1.45-4.04C852.67,863.62,854.48,862.97,856,863.69z"/>
	<path class="st0" d="M870.44,914.56L839,899.74c-1.52-0.71-3.33-0.06-4.05,1.46c-0.71,1.52-0.06,3.33,1.45,4.04l31.44,14.82   c1.52,0.72,3.33,0.07,4.05-1.45C872.61,917.09,871.95,915.28,870.44,914.56z"/>
	<path class="st0" d="M874.69,905.55l-31.44-14.83c-1.52-0.72-3.33-0.07-4.05,1.46c-0.72,1.51-0.06,3.32,1.46,4.04l31.43,14.83   c1.52,0.71,3.33,0.07,4.05-1.45C876.86,908.08,876.2,906.27,874.69,905.55z"/>
	<path class="st0" d="M878.94,896.54l-31.45-14.82c-1.52-0.71-3.33-0.07-4.04,1.45c-0.72,1.52-0.07,3.33,1.45,4.04l31.44,14.83   c1.52,0.71,3.33,0.06,4.05-1.46C881.1,899.06,880.45,897.25,878.94,896.54z"/>
	<path class="st0" d="M883.19,887.53l-31.44-14.83c-1.51-0.72-3.33-0.06-4.04,1.45c-0.71,1.52-0.07,3.33,1.46,4.04l31.43,14.83   c1.53,0.71,3.34,0.05,4.04-1.46C885.36,890.05,884.7,888.24,883.19,887.53z"/>
	<path class="st0" d="M853.4,869.18L884.84,884c1.52,0.72,3.34,0.07,4.05-1.45c0.71-1.52,0.06-3.33-1.45-4.05L856,863.69   c-1.52-0.72-3.33-0.07-4.04,1.45C851.23,866.65,851.89,868.47,853.4,869.18z"/>
	<path class="st3" d="M810.33,906.07l-6.49,13.26l0.11,0.05l6.47-13.22C810.39,906.13,810.36,906.1,810.33,906.07z"/>
	<polygon class="st3" points="842.64,840.32 839,813.3 792.82,787.27 790.34,787.78 838.82,815.13 842.28,840.79 836.29,853.04    836.31,853.26  "/>
	<polygon class="st3" points="806.69,920.73 806.74,920.62 805.66,920.22  "/>
	<polygon class="st3" points="835.76,854.37 836.31,853.26 836.29,853.04 835.63,854.38  "/>
	<path class="st3" d="M841.75,813.14l-46.7-26.33l-2.23,0.46L839,813.3l3.64,27.02l-6.33,12.94l0.2,2.27l-1.51,0.14l-24.67,50.41   c0.03,0.03,0.06,0.06,0.09,0.09l-6.47,13.22l1.72,0.84l1.08,0.39l38.82-79.3L841.75,813.14z"/>
	<polygon class="st3" points="835.63,854.38 835,855.67 836.51,855.53 836.31,853.26 835.76,854.37  "/>
	<path d="M762.19,1167.29c-6.8,6.48-6.43,17.9,0.82,25.52l44.22,43.65c7.25,7.62,18.64,8.54,25.45,2.06l138.91-154.9l-49.74-61.07   L762.19,1167.29z"/>
	<path d="M1257.7,897.2l-4.89,4.66l-21.28-22.34c2.61-2.57,5.48-9.87,0.13-15.49c-18-18.9-29.38-31.09-57.41-60.53   c-33.87-35.56-35.28-49.98-141.85-16.15c-20.21,6.42-26.77,17.56-24.66,23.49c3.58,10.1,17.88,13.39,37.97,11.49   c39.4-3.75,52.64-15.85,63.36,6.24c3.56,7.34,1.63,12.27-10.8,28.64c-6.06,7.99-22.96,29.45-27.47,35.18l-79.76,72.31l47.66,53.43   l72.39-80.71l0.2,0.21c0.02-0.01,0.04-0.03,0.06-0.04l0.03,0.03c0.05-0.05,0.1-0.11,0.15-0.16c24.06-15.96,61.63-32.87,77.29-17.24   l0.13-0.13l21.27,22.34l-5.5,5.24l33.3,34.96l52.98-50.46L1257.7,897.2z"/>
	<path d="M1163.73,1179.67c-0.68-0.99-1.41-1.95-2.2-2.89l0.09-0.07l-131.5-147.44l-47.66-53.43l-62.51-70.08L898.9,802.84   c0,0-6.62-29.09-30.18-28.29c-23.58,0.8-75.9,12.73-75.9,12.73l0,0l2.23-0.46l46.7,26.33l3.81,28.18l-38.82,79.3l67.52,24.5   l0.08-0.07l60.35,74.09l49.74,61.07l119,146.1l0.08-0.07c13.69,15.82,37.61,17.68,53.56,4.08c8.29-7.07,12.79-16.92,13.32-27.01   C1173.63,1193.4,1168.13,1185.08,1163.73,1179.67z M871.21,926.35l-42.04-19.82l23.1-49.01l42.03,19.82L871.21,926.35z"/>
</g>
</svg>